<svg width="70" height="70" viewBox="0 0 70 70" fill="none" xmlns="http://www.w3.org/2000/svg">
<circle cx="34.9301" cy="35.2246" r="34.2655" fill="#283618"/>
<path d="M32.8761 63.6671L32.9674 63.8835L33.2022 63.881C37.4874 63.8362 41.3488 63.0623 44.1494 61.2542C46.973 59.4312 48.6882 56.5749 48.6882 52.4655C48.6882 51.7121 48.4925 50.8472 48.1859 49.8739C47.879 48.9 47.4513 47.7885 46.9698 46.5376L46.9666 46.5291C45.6051 42.9917 43.7843 38.2589 42.8588 31.9821C42.0681 26.6201 42.3349 20.7469 42.8025 16.2038C43.0361 13.9345 43.3193 12.0017 43.544 10.6367C43.6564 9.95429 43.7541 9.41402 43.8236 9.04483C43.8583 8.86024 43.886 8.71843 43.905 8.62302C43.9145 8.57532 43.9218 8.53922 43.9267 8.51517L43.9322 8.48819L43.9336 8.48159L43.9339 8.48003L43.934 8.47969L43.5913 8.4082L43.934 8.47964L44.1403 7.48981L43.3662 8.14023C30.0815 19.3018 23.4077 27.4183 20.0598 33.785C16.7022 40.1702 16.7022 44.7752 16.7022 48.8469V48.8473C16.7022 55.8013 21.7505 61.6306 28.5776 63.3599L29.2877 63.5398L28.9815 62.8743C24.5307 53.203 25.6251 46.3522 27.7871 41.9322C28.8718 39.7147 30.2319 38.0956 31.3198 37.0317C31.4725 36.8824 31.6197 36.7441 31.76 36.6166C31.7184 36.6989 31.676 36.7842 31.633 36.8724C31.0264 38.1179 30.3017 39.9616 29.8191 42.3682C28.853 47.1859 28.8606 54.2406 32.6969 63.2445C32.7579 63.3877 32.8176 63.5285 32.8761 63.6671Z" fill="#FEFAE0" stroke="#606C38" stroke-width="0.7"/>
<path d="M56.2499 26.2901H52.2916V30.2485C52.2916 30.4584 52.2082 30.6598 52.0597 30.8082C51.9112 30.9567 51.7099 31.0401 51.4999 31.0401C51.29 31.0401 51.0886 30.9567 50.9401 30.8082C50.7917 30.6598 50.7083 30.4584 50.7083 30.2485V26.2901H46.7499C46.54 26.2901 46.3386 26.2067 46.1901 26.0582C46.0417 25.9098 45.9583 25.7084 45.9583 25.4985C45.9583 25.2885 46.0417 25.0871 46.1901 24.9387C46.3386 24.7902 46.54 24.7068 46.7499 24.7068H50.7083V20.7485C50.7083 20.5385 50.7917 20.3371 50.9401 20.1887C51.0886 20.0402 51.29 19.9568 51.4999 19.9568C51.7099 19.9568 51.9112 20.0402 52.0597 20.1887C52.2082 20.3371 52.2916 20.5385 52.2916 20.7485V24.7068H56.2499C56.4599 24.7068 56.6612 24.7902 56.8097 24.9387C56.9582 25.0871 57.0416 25.2885 57.0416 25.4985C57.0416 25.7084 56.9582 25.9098 56.8097 26.0582C56.6612 26.2067 56.4599 26.2901 56.2499 26.2901Z" fill="#FEFAE0"/>
</svg>
