<svg width="90" height="89" viewBox="0 0 90 89" fill="none" xmlns="http://www.w3.org/2000/svg">
<g filter="url(#filter0_di_170_478)">
<circle cx="44.9298" cy="40.2248" r="40.2248" fill="url(#paint0_linear_170_478)"/>
<circle cx="44.9301" cy="40.2246" r="34.2655" fill="#283618"/>
<path d="M42.8761 68.6671L42.9674 68.8835L43.2022 68.881C47.4874 68.8362 51.3488 68.0623 54.1494 66.2542C56.973 64.4312 58.6882 61.5749 58.6882 57.4655C58.6882 56.7121 58.4925 55.8472 58.1859 54.8739C57.879 53.9 57.4513 52.7885 56.9698 51.5376L56.9666 51.5291C55.6051 47.9917 53.7843 43.2589 52.8588 36.9821C52.0681 31.6201 52.3349 25.7469 52.8025 21.2038C53.0361 18.9345 53.3193 17.0017 53.544 15.6367C53.6564 14.9543 53.7541 14.414 53.8236 14.0448C53.8583 13.8602 53.886 13.7184 53.905 13.623C53.9145 13.5753 53.9218 13.5392 53.9267 13.5152L53.9322 13.4882L53.9336 13.4816L53.9339 13.48L53.934 13.4797L53.5913 13.4082L53.934 13.4796L54.1403 12.4898L53.3662 13.1402C40.0815 24.3018 33.4077 32.4183 30.0598 38.785C26.7022 45.1702 26.7022 49.7752 26.7022 53.8469V53.8473C26.7022 60.8013 31.7505 66.6306 38.5776 68.3599L39.2877 68.5398L38.9815 67.8743C34.5307 58.203 35.6251 51.3522 37.7871 46.9322C38.8718 44.7147 40.2319 43.0956 41.3198 42.0317C41.4725 41.8824 41.6197 41.7441 41.76 41.6166C41.7184 41.6989 41.676 41.7842 41.633 41.8724C41.0264 43.1179 40.3017 44.9616 39.8191 47.3682C38.853 52.1859 38.8606 59.2406 42.6969 68.2445C42.7579 68.3877 42.8176 68.5285 42.8761 68.6671Z" fill="#FEFAE0" stroke="#606C38" stroke-width="0.7"/>
<path d="M66.2499 31.2901H62.2916V35.2485C62.2916 35.4584 62.2082 35.6598 62.0597 35.8082C61.9112 35.9567 61.7099 36.0401 61.4999 36.0401C61.29 36.0401 61.0886 35.9567 60.9401 35.8082C60.7917 35.6598 60.7083 35.4584 60.7083 35.2485V31.2901H56.7499C56.54 31.2901 56.3386 31.2067 56.1901 31.0582C56.0417 30.9098 55.9583 30.7084 55.9583 30.4985C55.9583 30.2885 56.0417 30.0871 56.1901 29.9387C56.3386 29.7902 56.54 29.7068 56.7499 29.7068H60.7083V25.7485C60.7083 25.5385 60.7917 25.3371 60.9401 25.1887C61.0886 25.0402 61.29 24.9568 61.4999 24.9568C61.7099 24.9568 61.9112 25.0402 62.0597 25.1887C62.2082 25.3371 62.2916 25.5385 62.2916 25.7485V29.7068H66.2499C66.4599 29.7068 66.6612 29.7902 66.8097 29.9387C66.9582 30.0871 67.0416 30.2885 67.0416 30.4985C67.0416 30.7084 66.9582 30.9098 66.8097 31.0582C66.6612 31.2067 66.4599 31.2901 66.2499 31.2901Z" fill="#FEFAE0"/>
</g>
<defs>
<filter id="filter0_di_170_478" x="0.705078" y="0" width="88.4495" height="88.4495" filterUnits="userSpaceOnUse" color-interpolation-filters="sRGB">
<feFlood flood-opacity="0" result="BackgroundImageFix"/>
<feColorMatrix in="SourceAlpha" type="matrix" values="0 0 0 0 0 0 0 0 0 0 0 0 0 0 0 0 0 0 127 0" result="hardAlpha"/>
<feOffset dy="4"/>
<feGaussianBlur stdDeviation="2"/>
<feComposite in2="hardAlpha" operator="out"/>
<feColorMatrix type="matrix" values="0 0 0 0 0 0 0 0 0 0 0 0 0 0 0 0 0 0 0.25 0"/>
<feBlend mode="normal" in2="BackgroundImageFix" result="effect1_dropShadow_170_478"/>
<feBlend mode="normal" in="SourceGraphic" in2="effect1_dropShadow_170_478" result="shape"/>
<feColorMatrix in="SourceAlpha" type="matrix" values="0 0 0 0 0 0 0 0 0 0 0 0 0 0 0 0 0 0 127 0" result="hardAlpha"/>
<feOffset dx="1" dy="2"/>
<feGaussianBlur stdDeviation="0.5"/>
<feComposite in2="hardAlpha" operator="arithmetic" k2="-1" k3="1"/>
<feColorMatrix type="matrix" values="0 0 0 0 0 0 0 0 0 0 0 0 0 0 0 0 0 0 0.25 0"/>
<feBlend mode="normal" in2="shape" result="effect2_innerShadow_170_478"/>
</filter>
<linearGradient id="paint0_linear_170_478" x1="44.9298" y1="0" x2="44.9298" y2="80.4495" gradientUnits="userSpaceOnUse">
<stop offset="0.0450408" stop-color="#BC6C25"/>
<stop offset="1" stop-color="#283618"/>
</linearGradient>
</defs>
</svg>
