<svg width="88" height="88" viewBox="0 0 88 88" fill="none" xmlns="http://www.w3.org/2000/svg">
<circle cx="44" cy="44" r="44" fill="#DDA15E"/>
<path d="M44.5 56.5625C47.4688 56.5625 49.9926 55.523 52.0715 53.4441C54.1504 51.3652 55.1891 48.8422 55.1875 45.875C55.1875 42.9062 54.148 40.3824 52.0691 38.3035C49.9902 36.2246 47.4672 35.1859 44.5 35.1875C41.5313 35.1875 39.0074 36.227 36.9285 38.3059C34.8496 40.3848 33.8109 42.9078 33.8125 45.875C33.8125 48.8438 34.852 51.3676 36.9309 53.4465C39.0098 55.5254 41.5328 56.5641 44.5 56.5625ZM44.5 54.1875L41.8875 48.4875L36.1875 45.875L41.8875 43.2625L44.5 37.5625L47.1125 43.2625L52.8125 45.875L47.1125 48.4875L44.5 54.1875ZM25.5 64.875C24.1938 64.875 23.0751 64.4095 22.1441 63.4785C21.2131 62.5475 20.7484 61.4297 20.75 60.125V31.625C20.75 30.3188 21.2155 29.2001 22.1465 28.2691C23.0775 27.3381 24.1953 26.8734 25.5 26.875H32.9813L37.375 22.125H51.625L56.0188 26.875H63.5C64.8063 26.875 65.9249 27.3405 66.8559 28.2715C67.7869 29.2025 68.2516 30.3203 68.25 31.625V60.125C68.25 61.4313 67.7845 62.5499 66.8535 63.4809C65.9225 64.4119 64.8047 64.8766 63.5 64.875H25.5Z" fill="#BC6C25"/>
</svg>
