<svg width="270" height="231" viewBox="0 0 270 231" fill="none" xmlns="http://www.w3.org/2000/svg">
<path d="M86.5 135.917C155.018 116.692 196.402 1.12049 259.606 0.0080843C269.758 -0.170598 276.5 9.3687 276.5 19.5225V216.5C276.5 229.203 266.203 239.5 253.5 239.5H137.462C133.552 239.5 129.706 238.503 126.289 236.604L69.8756 205.251C42.7557 190.179 46.1314 150.15 75.3926 139.833L86.5 135.917Z" fill="#283618"/>
<path d="M112.552 158.48L115.758 168H114.596L113.672 165.2H110.06L109.136 168H107.974L111.18 158.48H112.552ZM111.866 159.712L110.382 164.192H113.336L111.866 159.712ZM127.275 167.328C126.603 167.907 125.819 168.196 124.923 168.196C124.037 168.196 123.299 167.897 122.711 167.3C122.133 166.703 121.843 165.835 121.843 164.696C121.843 163.548 122.133 162.615 122.711 161.896C123.299 161.168 124.111 160.804 125.147 160.804C125.791 160.804 126.389 160.972 126.939 161.308L126.673 162.162C126.179 161.891 125.679 161.756 125.175 161.756C124.485 161.756 123.934 162.017 123.523 162.54C123.113 163.063 122.907 163.763 122.907 164.64C122.907 165.508 123.094 166.161 123.467 166.6C123.85 167.029 124.335 167.244 124.923 167.244C125.67 167.244 126.314 167.02 126.855 166.572L127.275 167.328ZM131.816 168.196C131.013 168.196 130.355 167.893 129.842 167.286C129.328 166.679 129.072 165.807 129.072 164.668C129.072 163.52 129.394 162.591 130.038 161.882C130.691 161.163 131.498 160.804 132.46 160.804C133.43 160.804 134.303 161.075 135.078 161.616V166.6L135.218 168L134.294 168.07L134.056 166.81C133.533 167.734 132.786 168.196 131.816 168.196ZM130.136 164.64C130.136 165.48 130.313 166.124 130.668 166.572C131.022 167.02 131.475 167.244 132.026 167.244C132.586 167.244 133.057 166.969 133.44 166.418C133.822 165.858 134.014 165.069 134.014 164.052V162.106C133.547 161.873 133.048 161.756 132.516 161.756C131.825 161.756 131.256 162.027 130.808 162.568C130.36 163.1 130.136 163.791 130.136 164.64ZM140.698 168.196C139.895 168.196 139.237 167.893 138.724 167.286C138.211 166.679 137.954 165.807 137.954 164.668C137.954 163.52 138.276 162.591 138.92 161.882C139.573 161.163 140.399 160.804 141.398 160.804C141.893 160.804 142.392 160.893 142.896 161.07V158.2H143.96V166.6L144.1 168L143.176 168.07L142.938 166.81C142.415 167.734 141.669 168.196 140.698 168.196ZM139.018 164.64C139.018 165.48 139.195 166.124 139.55 166.572C139.905 167.02 140.357 167.244 140.908 167.244C141.468 167.244 141.939 166.969 142.322 166.418C142.705 165.858 142.896 165.069 142.896 164.052V162.106C142.429 161.873 141.93 161.756 141.398 161.756C140.707 161.756 140.138 162.027 139.69 162.568C139.242 163.1 139.018 163.791 139.018 164.64ZM149.58 168.196C148.778 168.196 148.12 167.893 147.606 167.286C147.093 166.679 146.836 165.807 146.836 164.668C146.836 163.52 147.158 162.591 147.802 161.882C148.456 161.163 149.263 160.804 150.224 160.804C151.195 160.804 152.068 161.075 152.842 161.616V166.6L152.982 168L152.058 168.07L151.82 166.81C151.298 167.734 150.551 168.196 149.58 168.196ZM147.9 164.64C147.9 165.48 148.078 166.124 148.432 166.572C148.787 167.02 149.24 167.244 149.79 167.244C150.35 167.244 150.822 166.969 151.204 166.418C151.587 165.858 151.778 165.069 151.778 164.052V162.106C151.312 161.873 150.812 161.756 150.28 161.756C149.59 161.756 149.02 162.027 148.572 162.568C148.124 163.1 147.9 163.791 147.9 164.64ZM165.631 167.328C164.959 167.907 164.175 168.196 163.279 168.196C162.392 168.196 161.655 167.897 161.067 167.3C160.488 166.703 160.199 165.835 160.199 164.696C160.199 163.548 160.488 162.615 161.067 161.896C161.655 161.168 162.467 160.804 163.503 160.804C164.147 160.804 164.744 160.972 165.295 161.308L165.029 162.162C164.534 161.891 164.035 161.756 163.531 161.756C162.84 161.756 162.289 162.017 161.879 162.54C161.468 163.063 161.263 163.763 161.263 164.64C161.263 165.508 161.449 166.161 161.823 166.6C162.205 167.029 162.691 167.244 163.279 167.244C164.025 167.244 164.669 167.02 165.211 166.572L165.631 167.328ZM170.171 168.196C169.368 168.196 168.71 167.893 168.197 167.286C167.683 166.679 167.427 165.807 167.427 164.668C167.427 163.52 167.749 162.591 168.393 161.882C169.046 161.163 169.853 160.804 170.815 160.804C171.785 160.804 172.658 161.075 173.433 161.616V166.6L173.573 168L172.649 168.07L172.411 166.81C171.888 167.734 171.141 168.196 170.171 168.196ZM168.491 164.64C168.491 165.48 168.668 166.124 169.023 166.572C169.377 167.02 169.83 167.244 170.381 167.244C170.941 167.244 171.412 166.969 171.795 166.418C172.177 165.858 172.369 165.069 172.369 164.052V162.106C171.902 161.873 171.403 161.756 170.871 161.756C170.18 161.756 169.611 162.027 169.163 162.568C168.715 163.1 168.491 163.791 168.491 164.64ZM179.053 168.196C178.25 168.196 177.592 167.893 177.079 167.286C176.566 166.679 176.309 165.807 176.309 164.668C176.309 163.52 176.631 162.591 177.275 161.882C177.928 161.163 178.754 160.804 179.753 160.804C180.248 160.804 180.747 160.893 181.251 161.07V158.2H182.315V166.6L182.455 168L181.531 168.07L181.293 166.81C180.77 167.734 180.024 168.196 179.053 168.196ZM177.373 164.64C177.373 165.48 177.55 166.124 177.905 166.572C178.26 167.02 178.712 167.244 179.263 167.244C179.823 167.244 180.294 166.969 180.677 166.418C181.06 165.858 181.251 165.069 181.251 164.052V162.106C180.784 161.873 180.285 161.756 179.753 161.756C179.062 161.756 178.493 162.027 178.045 162.568C177.597 163.1 177.373 163.791 177.373 164.64ZM187.935 168.196C187.133 168.196 186.475 167.893 185.961 167.286C185.448 166.679 185.191 165.807 185.191 164.668C185.191 163.52 185.513 162.591 186.157 161.882C186.811 161.163 187.618 160.804 188.579 160.804C189.55 160.804 190.423 161.075 191.197 161.616V166.6L191.337 168L190.413 168.07L190.175 166.81C189.653 167.734 188.906 168.196 187.935 168.196ZM186.255 164.64C186.255 165.48 186.433 166.124 186.787 166.572C187.142 167.02 187.595 167.244 188.145 167.244C188.705 167.244 189.177 166.969 189.559 166.418C189.942 165.858 190.133 165.069 190.133 164.052V162.106C189.667 161.873 189.167 161.756 188.635 161.756C187.945 161.756 187.375 162.027 186.927 162.568C186.479 163.1 186.255 163.791 186.255 164.64ZM196.468 167.23C196.878 167.23 197.224 167.132 197.504 166.936C197.784 166.74 197.924 166.497 197.924 166.208C197.924 165.909 197.844 165.676 197.686 165.508C197.527 165.331 197.354 165.205 197.168 165.13C196.99 165.055 196.734 164.971 196.398 164.878C196.062 164.775 195.805 164.691 195.628 164.626C195.45 164.551 195.24 164.439 194.998 164.29C194.54 164.01 194.312 163.534 194.312 162.862C194.312 162.181 194.54 161.667 194.998 161.322C195.455 160.977 195.992 160.804 196.608 160.804C196.99 160.804 197.373 160.855 197.756 160.958C198.148 161.061 198.442 161.168 198.638 161.28L198.246 162.134C197.798 161.891 197.252 161.77 196.608 161.77C196.281 161.77 195.992 161.859 195.74 162.036C195.497 162.204 195.376 162.423 195.376 162.694C195.376 162.955 195.45 163.161 195.6 163.31C195.749 163.459 195.903 163.567 196.062 163.632C196.22 163.697 196.463 163.777 196.79 163.87C197.116 163.963 197.378 164.052 197.574 164.136C197.779 164.211 198.008 164.332 198.26 164.5C198.745 164.827 198.988 165.345 198.988 166.054C198.988 166.754 198.745 167.286 198.26 167.65C197.784 168.014 197.186 168.196 196.468 168.196C195.497 168.196 194.676 167.883 194.004 167.258L194.578 166.488C195.091 166.983 195.721 167.23 196.468 167.23ZM200.859 161.91V161H201.923L202.259 158.9H202.987V161H204.625V161.91H202.987V166.474C202.987 166.987 203.197 167.244 203.617 167.244C203.934 167.244 204.28 167.109 204.653 166.838L205.045 167.552C204.504 167.981 203.976 168.196 203.463 168.196C202.95 168.196 202.562 168.075 202.301 167.832C202.049 167.58 201.923 167.127 201.923 166.474V161.91H200.859ZM208.322 168H207.258V162.4L207.118 161L208.042 160.93L208.322 162.61C208.602 162.031 208.956 161.593 209.386 161.294C209.815 160.995 210.282 160.846 210.786 160.846L210.856 161.91C209.213 162.041 208.368 163.296 208.322 165.676V168ZM213.44 167.174C212.926 166.483 212.67 165.592 212.67 164.5C212.67 163.408 212.926 162.521 213.44 161.84C213.953 161.149 214.718 160.804 215.736 160.804C216.762 160.804 217.537 161.149 218.06 161.84C218.582 162.521 218.844 163.408 218.844 164.5C218.844 165.592 218.582 166.483 218.06 167.174C217.537 167.855 216.762 168.196 215.736 168.196C214.718 168.196 213.953 167.855 213.44 167.174ZM214.238 162.526C213.902 163.03 213.734 163.688 213.734 164.5C213.734 165.312 213.902 165.975 214.238 166.488C214.574 166.992 215.078 167.244 215.75 167.244C216.422 167.244 216.926 166.992 217.262 166.488C217.607 165.975 217.78 165.312 217.78 164.5C217.78 163.688 217.607 163.03 217.262 162.526C216.926 162.013 216.422 161.756 215.75 161.756C215.078 161.756 214.574 162.013 214.238 162.526ZM226.054 161H227.118V165.256C227.118 166.581 227.589 167.244 228.532 167.244C229.073 167.244 229.563 166.969 230.002 166.418C230.45 165.858 230.688 165.088 230.716 164.108V161H231.78V166.6L231.92 168L230.996 168.07L230.716 166.628C230.436 167.132 230.081 167.519 229.652 167.79C229.222 168.061 228.788 168.196 228.35 168.196C226.819 168.196 226.054 167.216 226.054 165.256V161ZM238.434 160.804C239.554 160.804 240.254 161.387 240.534 162.554C240.805 161.994 241.15 161.565 241.57 161.266C242 160.958 242.438 160.804 242.886 160.804C243.605 160.804 244.156 161.051 244.538 161.546C244.921 162.031 245.112 162.764 245.112 163.744V168H244.048V163.744C244.048 162.419 243.605 161.756 242.718 161.756C242.205 161.756 241.738 162.036 241.318 162.596C240.908 163.156 240.688 163.926 240.66 164.906V168H239.596V163.744C239.596 162.419 239.153 161.756 238.266 161.756C237.753 161.756 237.286 162.036 236.866 162.596C236.456 163.156 236.236 163.926 236.208 164.906V168H235.144V162.4L235.004 161L235.928 160.93L236.194 162.344C236.474 161.849 236.815 161.471 237.216 161.21C237.618 160.939 238.024 160.804 238.434 160.804ZM250.517 168.196C249.715 168.196 249.057 167.893 248.543 167.286C248.03 166.679 247.773 165.807 247.773 164.668C247.773 163.52 248.095 162.591 248.739 161.882C249.393 161.163 250.2 160.804 251.161 160.804C252.132 160.804 253.005 161.075 253.779 161.616V166.6L253.919 168L252.995 168.07L252.757 166.81C252.235 167.734 251.488 168.196 250.517 168.196ZM248.837 164.64C248.837 165.48 249.015 166.124 249.369 166.572C249.724 167.02 250.177 167.244 250.727 167.244C251.287 167.244 251.759 166.969 252.141 166.418C252.524 165.858 252.715 165.069 252.715 164.052V162.106C252.249 161.873 251.749 161.756 251.217 161.756C250.527 161.756 249.957 162.027 249.509 162.568C249.061 163.1 248.837 163.791 248.837 164.64ZM114.504 173.804C116.034 173.804 116.8 174.784 116.8 176.744V181H115.736V176.744C115.736 175.419 115.264 174.756 114.322 174.756C113.78 174.756 113.286 175.036 112.838 175.596C112.399 176.156 112.166 176.926 112.138 177.906V181H111.074V175.4L110.934 174L111.858 173.93L112.124 175.372C112.413 174.868 112.772 174.481 113.202 174.21C113.631 173.939 114.065 173.804 114.504 173.804ZM120.304 180.174C119.791 179.483 119.534 178.592 119.534 177.5C119.534 176.408 119.791 175.521 120.304 174.84C120.818 174.149 121.583 173.804 122.6 173.804C123.627 173.804 124.402 174.149 124.924 174.84C125.447 175.521 125.708 176.408 125.708 177.5C125.708 178.592 125.447 179.483 124.924 180.174C124.402 180.855 123.627 181.196 122.6 181.196C121.583 181.196 120.818 180.855 120.304 180.174ZM121.102 175.526C120.766 176.03 120.598 176.688 120.598 177.5C120.598 178.312 120.766 178.975 121.102 179.488C121.438 179.992 121.942 180.244 122.614 180.244C123.286 180.244 123.79 179.992 124.126 179.488C124.472 178.975 124.644 178.312 124.644 177.5C124.644 176.688 124.472 176.03 124.126 175.526C123.79 175.013 123.286 174.756 122.614 174.756C121.942 174.756 121.438 175.013 121.102 175.526ZM128.607 174L130.707 179.782L132.793 174H133.927L131.323 181H130.063L127.459 174H128.607ZM138.346 181.196C137.543 181.196 136.885 180.893 136.372 180.286C135.859 179.679 135.602 178.807 135.602 177.668C135.602 176.52 135.924 175.591 136.568 174.882C137.221 174.163 138.029 173.804 138.99 173.804C139.961 173.804 140.833 174.075 141.608 174.616V179.6L141.748 181L140.824 181.07L140.586 179.81C140.063 180.734 139.317 181.196 138.346 181.196ZM136.666 177.64C136.666 178.48 136.843 179.124 137.198 179.572C137.553 180.02 138.005 180.244 138.556 180.244C139.116 180.244 139.587 179.969 139.97 179.418C140.353 178.858 140.544 178.069 140.544 177.052V175.106C140.077 174.873 139.578 174.756 139.046 174.756C138.355 174.756 137.786 175.027 137.338 175.568C136.89 176.1 136.666 176.791 136.666 177.64ZM151.708 181.196C150.906 181.196 150.248 180.893 149.734 180.286C149.221 179.679 148.964 178.807 148.964 177.668C148.964 176.52 149.286 175.591 149.93 174.882C150.584 174.163 151.391 173.804 152.352 173.804C153.323 173.804 154.196 174.075 154.97 174.616V179.6L155.11 181L154.186 181.07L153.948 179.81C153.426 180.734 152.679 181.196 151.708 181.196ZM150.028 177.64C150.028 178.48 150.206 179.124 150.56 179.572C150.915 180.02 151.368 180.244 151.918 180.244C152.478 180.244 152.95 179.969 153.332 179.418C153.715 178.858 153.906 178.069 153.906 177.052V175.106C153.44 174.873 152.94 174.756 152.408 174.756C151.718 174.756 151.148 175.027 150.7 175.568C150.252 176.1 150.028 176.791 150.028 177.64ZM151.26 170.71C151.503 170.71 151.746 170.873 151.988 171.2L153.416 173.16L153.08 173.51L150.56 171.452C150.728 170.957 150.962 170.71 151.26 170.71ZM159.471 181H158.407V175.4L158.267 174L159.191 173.93L159.471 175.61C159.751 175.031 160.105 174.593 160.535 174.294C160.964 173.995 161.431 173.846 161.935 173.846L162.005 174.91C160.362 175.041 159.517 176.296 159.471 178.676V181ZM164.337 174L166.437 179.782L168.523 174H169.657L167.053 181H165.793L163.189 174H164.337ZM172.172 180.174C171.659 179.483 171.402 178.592 171.402 177.5C171.402 176.408 171.659 175.521 172.172 174.84C172.685 174.149 173.451 173.804 174.468 173.804C175.495 173.804 176.269 174.149 176.792 174.84C177.315 175.521 177.576 176.408 177.576 177.5C177.576 178.592 177.315 179.483 176.792 180.174C176.269 180.855 175.495 181.196 174.468 181.196C173.451 181.196 172.685 180.855 172.172 180.174ZM172.97 175.526C172.634 176.03 172.466 176.688 172.466 177.5C172.466 178.312 172.634 178.975 172.97 179.488C173.306 179.992 173.81 180.244 174.482 180.244C175.154 180.244 175.658 179.992 175.994 179.488C176.339 178.975 176.512 178.312 176.512 177.5C176.512 176.688 176.339 176.03 175.994 175.526C175.658 175.013 175.154 174.756 174.482 174.756C173.81 174.756 173.306 175.013 172.97 175.526ZM181.51 181H180.446V175.4L180.306 174L181.23 173.93L181.51 175.61C181.79 175.031 182.145 174.593 182.574 174.294C183.004 173.995 183.47 173.846 183.974 173.846L184.044 174.91C182.402 175.041 181.557 176.296 181.51 178.676V181ZM188.686 181.196C187.846 181.196 187.151 180.902 186.6 180.314C186.059 179.726 185.788 178.863 185.788 177.724C185.788 176.585 186.11 175.647 186.754 174.91C187.398 174.173 188.234 173.804 189.26 173.804C189.914 173.804 190.441 174.005 190.842 174.406C191.244 174.798 191.444 175.293 191.444 175.89C191.444 176.478 191.136 177.019 190.52 177.514C189.914 178.009 189.027 178.256 187.86 178.256C187.552 178.256 187.226 178.242 186.88 178.214C186.946 178.877 187.146 179.381 187.482 179.726C187.828 180.071 188.243 180.244 188.728 180.244C189.54 180.244 190.217 179.992 190.758 179.488L191.262 180.174C190.553 180.855 189.694 181.196 188.686 181.196ZM189.218 174.756C188.574 174.756 188.038 174.985 187.608 175.442C187.188 175.899 186.941 176.506 186.866 177.262C187.174 177.309 187.515 177.332 187.888 177.332C188.691 177.332 189.307 177.183 189.736 176.884C190.166 176.585 190.38 176.24 190.38 175.848C190.38 175.559 190.273 175.307 190.058 175.092C189.853 174.868 189.573 174.756 189.218 174.756ZM202.019 173.804C203.55 173.804 204.315 174.784 204.315 176.744V181H203.251V176.744C203.251 175.419 202.78 174.756 201.837 174.756C201.296 174.756 200.801 175.036 200.353 175.596C199.915 176.156 199.681 176.926 199.653 177.906V181H198.589V175.4L198.449 174L199.373 173.93L199.639 175.372C199.929 174.868 200.288 174.481 200.717 174.21C201.147 173.939 201.581 173.804 202.019 173.804ZM209.724 181.196C208.921 181.196 208.263 180.893 207.75 180.286C207.237 179.679 206.98 178.807 206.98 177.668C206.98 176.52 207.302 175.591 207.946 174.882C208.599 174.163 209.407 173.804 210.368 173.804C211.339 173.804 212.211 174.075 212.986 174.616V179.6L213.126 181L212.202 181.07L211.964 179.81C211.441 180.734 210.695 181.196 209.724 181.196ZM208.044 177.64C208.044 178.48 208.221 179.124 208.576 179.572C208.931 180.02 209.383 180.244 209.934 180.244C210.494 180.244 210.965 179.969 211.348 179.418C211.731 178.858 211.922 178.069 211.922 177.052V175.106C211.455 174.873 210.956 174.756 210.424 174.756C209.733 174.756 209.164 175.027 208.716 175.568C208.268 176.1 208.044 176.791 208.044 177.64ZM215.638 174.91V174H216.702L217.038 171.9H217.766V174H219.404V174.91H217.766V179.474C217.766 179.987 217.976 180.244 218.396 180.244C218.714 180.244 219.059 180.109 219.432 179.838L219.824 180.552C219.283 180.981 218.756 181.196 218.242 181.196C217.729 181.196 217.342 181.075 217.08 180.832C216.828 180.58 216.702 180.127 216.702 179.474V174.91H215.638ZM222.135 172.474C222.023 172.343 221.967 172.18 221.967 171.984C221.967 171.788 222.023 171.629 222.135 171.508C222.247 171.377 222.411 171.312 222.625 171.312C222.84 171.312 223.008 171.377 223.129 171.508C223.251 171.639 223.311 171.797 223.311 171.984C223.311 172.171 223.251 172.329 223.129 172.46C223.008 172.591 222.84 172.656 222.625 172.656C222.411 172.656 222.247 172.595 222.135 172.474ZM222.107 181V174H223.171V181H222.107ZM226.627 174L228.727 179.782L230.813 174H231.947L229.343 181H228.083L225.479 174H226.627ZM236.367 181.196C235.564 181.196 234.906 180.893 234.393 180.286C233.879 179.679 233.623 178.807 233.623 177.668C233.623 176.52 233.945 175.591 234.589 174.882C235.242 174.163 236.049 173.804 237.011 173.804C237.981 173.804 238.854 174.075 239.629 174.616V179.6L239.769 181L238.845 181.07L238.607 179.81C238.084 180.734 237.337 181.196 236.367 181.196ZM234.687 177.64C234.687 178.48 234.864 179.124 235.219 179.572C235.573 180.02 236.026 180.244 236.577 180.244C237.137 180.244 237.608 179.969 237.991 179.418C238.373 178.858 238.565 178.069 238.565 177.052V175.106C238.098 174.873 237.599 174.756 237.067 174.756C236.376 174.756 235.807 175.027 235.359 175.568C234.911 176.1 234.687 176.791 234.687 177.64ZM249.883 181.196C249.043 181.196 248.348 180.902 247.797 180.314C247.256 179.726 246.985 178.863 246.985 177.724C246.985 176.585 247.307 175.647 247.951 174.91C248.595 174.173 249.43 173.804 250.457 173.804C251.11 173.804 251.638 174.005 252.039 174.406C252.44 174.798 252.641 175.293 252.641 175.89C252.641 176.478 252.333 177.019 251.717 177.514C251.11 178.009 250.224 178.256 249.057 178.256C248.749 178.256 248.422 178.242 248.077 178.214C248.142 178.877 248.343 179.381 248.679 179.726C249.024 180.071 249.44 180.244 249.925 180.244C250.737 180.244 251.414 179.992 251.955 179.488L252.459 180.174C251.75 180.855 250.891 181.196 249.883 181.196ZM250.415 174.756C249.771 174.756 249.234 174.985 248.805 175.442C248.385 175.899 248.138 176.506 248.063 177.262C248.371 177.309 248.712 177.332 249.085 177.332C249.888 177.332 250.504 177.183 250.933 176.884C251.362 176.585 251.577 176.24 251.577 175.848C251.577 175.559 251.47 175.307 251.255 175.092C251.05 174.868 250.77 174.756 250.415 174.756ZM251.101 170.71C251.4 170.71 251.633 170.957 251.801 171.452L249.281 173.51L248.945 173.16L250.373 171.2C250.616 170.873 250.858 170.71 251.101 170.71ZM148.364 186.804C149.166 186.804 149.824 187.107 150.338 187.714C150.851 188.321 151.108 189.198 151.108 190.346C151.108 191.485 150.781 192.413 150.128 193.132C149.484 193.841 148.662 194.196 147.664 194.196C147.169 194.196 146.67 194.107 146.166 193.93V197.15H145.102V188.4L144.962 187L145.886 186.93L146.124 188.218C146.646 187.275 147.393 186.804 148.364 186.804ZM150.044 190.374C150.044 189.525 149.866 188.876 149.512 188.428C149.157 187.98 148.704 187.756 148.154 187.756C147.612 187.756 147.15 188.022 146.768 188.554C146.385 189.086 146.184 189.847 146.166 190.836V192.852C146.651 193.113 147.15 193.244 147.664 193.244C148.354 193.244 148.924 192.978 149.372 192.446C149.82 191.905 150.044 191.214 150.044 190.374ZM153.844 184.2H154.908V192.46C154.908 192.973 155.118 193.23 155.538 193.23C155.809 193.23 156.075 193.137 156.336 192.95L156.756 193.706C156.243 194.033 155.757 194.196 155.3 194.196C154.843 194.196 154.483 194.07 154.222 193.818C153.97 193.566 153.844 193.113 153.844 192.46V184.2ZM160.826 194.196C160.023 194.196 159.365 193.893 158.852 193.286C158.338 192.679 158.082 191.807 158.082 190.668C158.082 189.52 158.404 188.591 159.048 187.882C159.701 187.163 160.508 186.804 161.47 186.804C162.44 186.804 163.313 187.075 164.088 187.616V192.6L164.228 194L163.304 194.07L163.066 192.81C162.543 193.734 161.796 194.196 160.826 194.196ZM159.146 190.64C159.146 191.48 159.323 192.124 159.678 192.572C160.032 193.02 160.485 193.244 161.036 193.244C161.596 193.244 162.067 192.969 162.45 192.418C162.832 191.858 163.024 191.069 163.024 190.052V188.106C162.557 187.873 162.058 187.756 161.526 187.756C160.835 187.756 160.266 188.027 159.818 188.568C159.37 189.1 159.146 189.791 159.146 190.64ZM170.954 186.804C172.485 186.804 173.25 187.784 173.25 189.744V194H172.186V189.744C172.186 188.419 171.715 187.756 170.772 187.756C170.231 187.756 169.736 188.036 169.288 188.596C168.849 189.156 168.616 189.926 168.588 190.906V194H167.524V188.4L167.384 187L168.308 186.93L168.574 188.372C168.863 187.868 169.223 187.481 169.652 187.21C170.081 186.939 170.515 186.804 170.954 186.804ZM175.691 187.91V187H176.755L177.091 184.9H177.819V187H179.457V187.91H177.819V192.474C177.819 192.987 178.029 193.244 178.449 193.244C178.766 193.244 179.111 193.109 179.485 192.838L179.877 193.552C179.335 193.981 178.808 194.196 178.295 194.196C177.781 194.196 177.394 194.075 177.133 193.832C176.881 193.58 176.755 193.127 176.755 192.474V187.91H175.691ZM184.273 194.196C183.471 194.196 182.813 193.893 182.299 193.286C181.786 192.679 181.529 191.807 181.529 190.668C181.529 189.52 181.851 188.591 182.495 187.882C183.149 187.163 183.956 186.804 184.917 186.804C185.888 186.804 186.761 187.075 187.535 187.616V192.6L187.675 194L186.751 194.07L186.513 192.81C185.991 193.734 185.244 194.196 184.273 194.196ZM182.593 190.64C182.593 191.48 182.771 192.124 183.125 192.572C183.48 193.02 183.933 193.244 184.483 193.244C185.043 193.244 185.515 192.969 185.897 192.418C186.28 191.858 186.471 191.069 186.471 190.052V188.106C186.005 187.873 185.505 187.756 184.973 187.756C184.283 187.756 183.713 188.027 183.265 188.568C182.817 189.1 182.593 189.791 182.593 190.64ZM193.156 194.196C192.353 194.196 191.695 193.893 191.182 193.286C190.668 192.679 190.412 191.807 190.412 190.668C190.412 189.52 190.734 188.591 191.378 187.882C192.031 187.163 192.857 186.804 193.856 186.804C194.35 186.804 194.85 186.893 195.354 187.07V184.2H196.418V192.6L196.558 194L195.634 194.07L195.396 192.81C194.873 193.734 194.126 194.196 193.156 194.196ZM191.476 190.64C191.476 191.48 191.653 192.124 192.008 192.572C192.362 193.02 192.815 193.244 193.366 193.244C193.926 193.244 194.397 192.969 194.78 192.418C195.162 191.858 195.354 191.069 195.354 190.052V188.106C194.887 187.873 194.388 187.756 193.856 187.756C193.165 187.756 192.596 188.027 192.148 188.568C191.7 189.1 191.476 189.791 191.476 190.64ZM202.038 194.196C201.235 194.196 200.577 193.893 200.064 193.286C199.551 192.679 199.294 191.807 199.294 190.668C199.294 189.52 199.616 188.591 200.26 187.882C200.913 187.163 201.721 186.804 202.682 186.804C203.653 186.804 204.525 187.075 205.3 187.616V192.6L205.44 194L204.516 194.07L204.278 192.81C203.755 193.734 203.009 194.196 202.038 194.196ZM200.358 190.64C200.358 191.48 200.535 192.124 200.89 192.572C201.245 193.02 201.697 193.244 202.248 193.244C202.808 193.244 203.279 192.969 203.662 192.418C204.045 191.858 204.236 191.069 204.236 190.052V188.106C203.769 187.873 203.27 187.756 202.738 187.756C202.047 187.756 201.478 188.027 201.03 188.568C200.582 189.1 200.358 189.791 200.358 190.64ZM213.622 193.986C213.492 193.837 213.426 193.65 213.426 193.426C213.426 193.202 213.492 193.02 213.622 192.88C213.753 192.731 213.94 192.656 214.182 192.656C214.434 192.656 214.626 192.731 214.756 192.88C214.896 193.02 214.966 193.202 214.966 193.426C214.966 193.65 214.896 193.837 214.756 193.986C214.626 194.126 214.434 194.196 214.182 194.196C213.94 194.196 213.753 194.126 213.622 193.986ZM213.622 188.946C213.492 188.797 213.426 188.61 213.426 188.386C213.426 188.162 213.492 187.98 213.622 187.84C213.753 187.691 213.94 187.616 214.182 187.616C214.434 187.616 214.626 187.691 214.756 187.84C214.896 187.98 214.966 188.162 214.966 188.386C214.966 188.61 214.896 188.797 214.756 188.946C214.626 189.086 214.434 189.156 214.182 189.156C213.94 189.156 213.753 189.086 213.622 188.946ZM217.791 192.362C218.034 191.354 218.155 190.453 218.155 189.66C218.155 188.867 218.034 187.966 217.791 186.958C217.558 185.95 217.245 185.171 216.853 184.62L217.637 184.018C218.141 184.699 218.533 185.553 218.813 186.58C219.102 187.597 219.247 188.629 219.247 189.674C219.247 190.71 219.102 191.737 218.813 192.754C218.533 193.771 218.141 194.621 217.637 195.302L216.853 194.7C217.245 194.149 217.558 193.37 217.791 192.362Z" fill="#FEFAE0"/>
<path d="M171.714 115.256C170.188 115.256 169.042 114.728 168.274 113.672C167.516 112.616 167.138 111.245 167.138 109.56C167.138 107.875 167.516 106.504 168.274 105.448C169.042 104.392 170.188 103.864 171.714 103.864C172.716 103.864 173.628 104.115 174.45 104.616L174.002 105.688C173.298 105.251 172.535 105.032 171.714 105.032C170.615 105.032 169.788 105.453 169.234 106.296C168.69 107.128 168.418 108.216 168.418 109.56C168.418 110.904 168.69 111.997 169.234 112.84C169.788 113.672 170.615 114.088 171.714 114.088C172.62 114.088 173.436 113.864 174.162 113.416L174.722 114.408C173.804 114.973 172.802 115.256 171.714 115.256ZM181.237 104.12L184.901 115H183.573L182.517 111.8H178.389L177.333 115H176.005L179.669 104.12H181.237ZM180.453 105.528L178.757 110.648H182.133L180.453 105.528ZM187.455 115V104.12H191.343C192.879 104.12 194.031 104.627 194.799 105.64C195.567 106.653 195.951 107.96 195.951 109.56C195.951 111.16 195.567 112.467 194.799 113.48C194.031 114.493 192.879 115 191.343 115H187.455ZM191.343 105.272H188.735V113.848H191.343C192.453 113.848 193.285 113.453 193.839 112.664C194.394 111.864 194.671 110.829 194.671 109.56C194.671 108.291 194.394 107.261 193.839 106.472C193.285 105.672 192.453 105.272 191.343 105.272ZM202.789 104.12L206.453 115H205.125L204.069 111.8H199.941L198.885 115H197.557L201.221 104.12H202.789ZM202.005 105.528L200.309 110.648H203.685L202.005 105.528ZM208.784 112.824C209.104 113.176 209.52 113.469 210.032 113.704C210.554 113.939 211.12 114.056 211.728 114.056C212.346 114.056 212.874 113.896 213.312 113.576C213.76 113.256 213.984 112.808 213.984 112.232C213.984 111.645 213.792 111.187 213.408 110.856C213.034 110.525 212.576 110.275 212.032 110.104C211.498 109.933 210.96 109.752 210.416 109.56C209.882 109.368 209.424 109.053 209.04 108.616C208.666 108.168 208.48 107.581 208.48 106.856C208.48 105.864 208.8 105.117 209.44 104.616C210.09 104.115 210.853 103.864 211.728 103.864C212.933 103.864 213.93 104.115 214.72 104.616L214.08 105.64C213.472 105.256 212.682 105.064 211.712 105.064C211.2 105.064 210.746 105.208 210.352 105.496C209.957 105.784 209.76 106.211 209.76 106.776C209.76 107.491 210.128 108.013 210.864 108.344C211.184 108.493 211.536 108.627 211.92 108.744C212.314 108.861 212.704 109 213.088 109.16C213.482 109.32 213.84 109.512 214.16 109.736C214.896 110.237 215.264 111.021 215.264 112.088C215.264 113.144 214.922 113.939 214.24 114.472C213.568 114.995 212.714 115.256 211.68 115.256C210.304 115.256 209.093 114.765 208.048 113.784L208.784 112.824ZM219.98 115V105.272H216.94V104.12H224.3V105.272H221.26V115H219.98ZM226.935 115V104.12H230.663C231.527 104.12 232.263 104.424 232.871 105.032C233.479 105.629 233.783 106.365 233.783 107.24C233.783 107.859 233.618 108.419 233.287 108.92C232.967 109.421 232.535 109.8 231.991 110.056C232.311 110.195 232.546 110.456 232.695 110.84L234.215 114.872L232.999 115.256L231.415 111.064C231.266 110.68 231.117 110.461 230.967 110.408C230.882 110.376 230.775 110.355 230.647 110.344H228.215V115H226.935ZM230.599 105.288H228.215V109.224H230.599C231.122 109.224 231.57 109.027 231.943 108.632C232.317 108.237 232.503 107.773 232.503 107.24C232.503 106.707 232.317 106.248 231.943 105.864C231.57 105.48 231.122 105.288 230.599 105.288ZM237.817 113.672C237.06 112.616 236.681 111.245 236.681 109.56C236.681 107.875 237.06 106.504 237.817 105.448C238.585 104.392 239.732 103.864 241.257 103.864C242.292 103.864 243.161 104.125 243.865 104.648C244.58 105.171 245.092 105.848 245.401 106.68C245.71 107.512 245.865 108.472 245.865 109.56C245.865 110.648 245.71 111.608 245.401 112.44C245.092 113.272 244.58 113.949 243.865 114.472C243.161 114.995 242.292 115.256 241.257 115.256C239.732 115.256 238.585 114.728 237.817 113.672ZM238.777 106.296C238.233 107.128 237.961 108.216 237.961 109.56C237.961 110.904 238.233 111.997 238.777 112.84C239.332 113.672 240.158 114.088 241.257 114.088C242.366 114.088 243.198 113.667 243.753 112.824C244.308 111.981 244.585 110.893 244.585 109.56C244.585 108.227 244.308 107.139 243.753 106.296C243.198 105.453 242.366 105.032 241.257 105.032C240.158 105.032 239.332 105.453 238.777 106.296ZM183.143 118.12L186.263 127.592L189.383 118.12H190.711L187.047 129H185.479L181.815 118.12H183.143ZM193.073 129V118.12H198.993V119.272H194.353V122.984H198.145V124.136H194.353V127.848H199.313V129H193.073ZM202.542 129V118.12H206.27C207.134 118.12 207.87 118.424 208.478 119.032C209.086 119.629 209.39 120.365 209.39 121.24C209.39 121.859 209.224 122.419 208.894 122.92C208.574 123.421 208.142 123.8 207.598 124.056C207.918 124.195 208.152 124.456 208.302 124.84L209.822 128.872L208.606 129.256L207.022 125.064C206.872 124.68 206.723 124.461 206.574 124.408C206.488 124.376 206.382 124.355 206.254 124.344H203.822V129H202.542ZM206.206 119.288H203.822V123.224H206.206C206.728 123.224 207.176 123.027 207.55 122.632C207.923 122.237 208.11 121.773 208.11 121.24C208.11 120.707 207.923 120.248 207.55 119.864C207.176 119.48 206.728 119.288 206.206 119.288ZM212.927 129V118.12H216.815C218.351 118.12 219.503 118.627 220.271 119.64C221.039 120.653 221.423 121.96 221.423 123.56C221.423 125.16 221.039 126.467 220.271 127.48C219.503 128.493 218.351 129 216.815 129H212.927ZM216.815 119.272H214.207V127.848H216.815C217.925 127.848 218.757 127.453 219.311 126.664C219.866 125.864 220.143 124.829 220.143 123.56C220.143 122.291 219.866 121.261 219.311 120.472C218.757 119.672 217.925 119.272 216.815 119.272ZM224.277 129V118.12H230.197V119.272H225.557V122.984H229.349V124.136H225.557V127.848H230.517V129H224.277Z" fill="#CCD5AE"/>
</svg>
