<svg width="28" height="29" viewBox="0 0 28 29" fill="none" xmlns="http://www.w3.org/2000/svg">
<path d="M24.4977 3.89995V6.23328C24.4977 8.39921 23.6373 10.4764 22.1058 12.008C20.5742 13.5395 18.497 14.3999 16.3311 14.3999H15.1644V15.5666H20.9977V23.7333C20.9977 24.3521 20.7519 24.9456 20.3143 25.3832C19.8767 25.8208 19.2832 26.0666 18.6644 26.0666H9.33106C8.71222 26.0666 8.11872 25.8208 7.68114 25.3832C7.24355 24.9456 6.99772 24.3521 6.99772 23.7333V15.5666H12.8311V12.0666C12.8311 9.90068 13.6915 7.82345 15.223 6.29191C16.7546 4.76036 18.8318 3.89995 20.9977 3.89995H24.4977ZM6.41439 2.73328C7.81436 2.73214 9.19411 3.06739 10.4375 3.7108C11.6808 4.3542 12.7514 5.28693 13.5591 6.43045C12.327 8.05082 11.6613 10.031 11.6644 12.0666V13.2333H11.0811C8.76041 13.2333 6.53481 12.3114 4.89387 10.6705C3.25293 9.02952 2.33105 6.80392 2.33105 4.48328V2.73328H6.41439Z" fill="#D27C2C"/>
</svg>
