<svg width="179" height="222" viewBox="0 0 179 222" fill="none" xmlns="http://www.w3.org/2000/svg">
<g filter="url(#filter0_d_176_790)">
<mask id="path-1-outside-1_176_790" maskUnits="userSpaceOnUse" x="45.4087" y="1" width="88" height="156" fill="black">
<rect fill="white" x="45.4087" y="1" width="88" height="156"/>
<path fill-rule="evenodd" clip-rule="evenodd" d="M90.5314 153.784C112.732 153.549 130.028 145.643 130.028 124.519C130.028 120.821 128.123 115.803 125.598 109.151C122.043 99.7893 117.26 87.1905 114.83 70.4811C110.673 41.8993 117.645 8 117.645 8C48.4087 66.971 48.4087 93.4994 48.4087 114.95C48.4087 132.868 61.2453 147.952 78.7004 152.434C55.2663 100.812 90.0626 78.7918 90.0626 78.7918C90.0626 78.7918 70.1901 105.381 90.0626 152.664C90.2222 153.043 90.3784 153.417 90.5314 153.784Z"/>
</mask>
<path fill-rule="evenodd" clip-rule="evenodd" d="M90.5314 153.784C112.732 153.549 130.028 145.643 130.028 124.519C130.028 120.821 128.123 115.803 125.598 109.151C122.043 99.7893 117.26 87.1905 114.83 70.4811C110.673 41.8993 117.645 8 117.645 8C48.4087 66.971 48.4087 93.4994 48.4087 114.95C48.4087 132.868 61.2453 147.952 78.7004 152.434C55.2663 100.812 90.0626 78.7918 90.0626 78.7918C90.0626 78.7918 70.1901 105.381 90.0626 152.664C90.2222 153.043 90.3784 153.417 90.5314 153.784Z" fill="#283618"/>
<path d="M90.5314 153.784L88.2235 154.745L88.8717 156.302L90.558 156.284L90.5314 153.784ZM125.598 109.151L123.261 110.039L123.261 110.039L125.598 109.151ZM114.83 70.4811L112.356 70.841L112.356 70.841L114.83 70.4811ZM117.645 8L120.093 8.50361L121.558 1.38309L116.023 6.09679L117.645 8ZM78.7004 152.434L78.0786 154.856L83.1345 156.154L80.9768 151.401L78.7004 152.434ZM90.0626 78.7918L92.0651 80.2884L88.7257 76.6793L90.0626 78.7918ZM90.0626 152.664L92.3674 151.695L92.3674 151.695L90.0626 152.664ZM127.528 124.519C127.528 134.27 123.603 140.726 117.236 144.893C110.707 149.166 101.384 151.169 90.5049 151.284L90.558 156.284C101.879 156.164 112.305 154.096 119.974 149.077C127.805 143.951 132.528 135.892 132.528 124.519H127.528ZM123.261 110.039C124.532 113.387 125.608 116.226 126.373 118.685C127.143 121.164 127.528 123.053 127.528 124.519H132.528C132.528 122.287 131.961 119.819 131.147 117.201C130.328 114.564 129.189 111.567 127.935 108.264L123.261 110.039ZM112.356 70.841C114.829 87.8409 119.699 100.658 123.261 110.039L127.935 108.264C124.388 98.9204 119.692 86.5401 117.304 70.1213L112.356 70.841ZM117.645 8C115.196 7.49639 115.196 7.49686 115.196 7.49746C115.195 7.49783 115.195 7.49856 115.195 7.4993C115.195 7.50079 115.194 7.50279 115.194 7.50531C115.193 7.51035 115.191 7.51743 115.19 7.52656C115.186 7.54481 115.181 7.5712 115.174 7.60559C115.16 7.67437 115.14 7.77514 115.114 7.90669C115.062 8.16979 114.988 8.55607 114.895 9.05595C114.709 10.0556 114.45 11.5101 114.152 13.3426C113.557 17.0065 112.809 22.1874 112.191 28.2698C110.959 40.4039 110.235 56.2567 112.356 70.841L117.304 70.1213C115.268 56.1238 115.951 40.736 117.166 28.7749C117.771 22.8098 118.506 17.7295 119.088 14.1441C119.379 12.3519 119.632 10.9347 119.811 9.96892C119.901 9.48604 119.972 9.11611 120.021 8.86868C120.045 8.74497 120.063 8.65189 120.076 8.59064C120.082 8.56002 120.086 8.53736 120.089 8.5228C120.091 8.51552 120.092 8.51027 120.093 8.50707C120.093 8.50546 120.093 8.50437 120.093 8.50379C120.093 8.50351 120.093 8.50346 120.093 8.50331C120.093 8.5034 120.093 8.50361 117.645 8ZM50.9087 114.95C50.9087 104.34 50.9097 92.8377 59.2824 76.6962C67.7228 60.4242 84.7562 39.2963 119.266 9.90321L116.023 6.09679C81.297 35.6748 63.7125 57.2965 54.844 74.394C45.9076 91.6221 45.9087 104.109 45.9087 114.95H50.9087ZM79.3222 150.013C62.8588 145.785 50.9087 131.613 50.9087 114.95H45.9087C45.9087 134.122 59.6319 150.119 78.0786 154.856L79.3222 150.013ZM80.9768 151.401C69.5427 126.213 72.4218 108.581 77.8453 97.3412C80.5822 91.669 84.0133 87.5295 86.7519 84.8145C88.1201 83.4581 89.3104 82.4623 90.146 81.8137C90.5636 81.4896 90.8918 81.2529 91.1084 81.1017C91.2166 81.0262 91.2969 80.9721 91.3464 80.9392C91.3711 80.9228 91.3881 80.9117 91.3971 80.9059C91.4016 80.903 91.404 80.9014 91.4045 80.9011C91.4047 80.901 91.4043 80.9012 91.4035 80.9017C91.4031 80.902 91.4021 80.9026 91.4019 80.9028C91.4007 80.9035 91.3995 80.9043 90.0626 78.7918C88.7257 76.6793 88.7242 76.6802 88.7225 76.6813C88.7218 76.6818 88.7199 76.6829 88.7185 76.6838C88.7155 76.6857 88.7121 76.6879 88.7081 76.6905C88.7001 76.6956 88.69 76.7021 88.6778 76.71C88.6535 76.7257 88.621 76.747 88.5806 76.7738C88.4998 76.8274 88.3876 76.9033 88.2467 77.0016C87.965 77.1983 87.5685 77.485 87.0804 77.8638C86.1046 78.6212 84.7596 79.749 83.2317 81.2636C80.1784 84.2906 76.3751 88.8826 73.3421 95.1683C67.226 107.844 64.424 127.033 76.424 153.468L80.9768 151.401ZM90.0626 78.7918C88.0601 77.2951 88.059 77.2965 88.0579 77.298C88.0574 77.2987 88.0562 77.3003 88.0553 77.3016C88.0534 77.3041 88.0512 77.3071 88.0487 77.3105C88.0437 77.3172 88.0375 77.3256 88.0301 77.3357C88.0155 77.3558 87.9961 77.3824 87.9724 77.4156C87.9249 77.4821 87.8598 77.5746 87.7789 77.6932C87.6171 77.9304 87.3922 78.2717 87.1187 78.7157C86.572 79.6036 85.8311 80.903 85.0146 82.6024C83.3816 86.0015 81.4454 91.0028 80.1579 97.5114C77.5771 110.558 77.629 129.532 87.7579 153.632L92.3674 151.695C82.6237 128.512 82.6756 110.55 85.0629 98.4817C86.2594 92.4327 88.0494 87.8316 89.5214 84.7677C90.2575 83.2356 90.9139 82.0884 91.3763 81.3375C91.6074 80.9621 91.79 80.686 91.9096 80.5106C91.9694 80.4229 92.0135 80.3604 92.04 80.3233C92.0532 80.3048 92.0621 80.2926 92.0664 80.2868C92.0685 80.2839 92.0695 80.2825 92.0693 80.2828C92.0692 80.283 92.0688 80.2835 92.0681 80.2844C92.0677 80.2849 92.067 80.2859 92.0668 80.2861C92.066 80.2872 92.0651 80.2884 90.0626 78.7918ZM87.7579 153.632C87.9164 154.009 88.0716 154.38 88.2235 154.745L92.8394 152.823C92.6853 152.453 92.5279 152.077 92.3674 151.695L87.7579 153.632Z" fill="#606C38" mask="url(#path-1-outside-1_176_790)"/>
</g>
<path d="M27.109 193.214C27.109 187.074 21.8342 182.497 11.4477 182.497H0V215.464C0 218.047 2.0938 220.141 4.67664 220.141V203.662H11.4477C23.8159 202.315 27.109 199.353 27.109 193.214ZM4.67664 203.662V184.058C4.67664 184.058 6.76453 185.099 11.4477 185.619C16.1308 186.139 22.7752 187.267 22.7752 192.383C22.7752 200.538 11.4477 203.662 11.4477 203.662H4.67664Z" fill="#283618"/>
<path d="M38.5058 186.63C38.5058 184.347 36.6555 182.497 34.373 182.497V216.008C34.373 218.291 36.2233 220.141 38.5058 220.141V186.63Z" fill="#283618"/>
<path d="M65.3839 195.799C70.3868 203.285 45.6985 199.407 45.6985 212.386C45.6985 218.579 50.9189 221.38 56.5744 221.38C62.2842 221.38 65.8733 218.148 66.5802 216.263C66.5802 218.375 68.2921 220.087 70.4039 220.087H70.7674V202.692C70.7674 197.63 68.0485 193.914 61.5229 193.914C55.7587 193.914 52.8222 196.984 52.0065 198.492C53.6394 199.259 55.5347 198.232 56.5445 196.737C57.4549 195.389 58.9326 194.183 61.3054 194.183C63.3175 194.183 64.6769 194.722 65.3839 195.799ZM66.5802 200.915V215.563C66.5802 216.64 63.9156 220.087 58.2058 220.087C51.5715 220.087 49.9401 215.725 49.9401 213.301C49.9401 201.938 65.6014 202.531 66.3083 197.953C66.5258 198.869 66.5802 199.838 66.5802 200.915Z" fill="#283618"/>
<path d="M78.2629 194.345V216.008C78.2629 218.291 80.1133 220.141 82.3958 220.141V198.115C82.3958 197.361 82.3414 196.714 82.1783 196.284C83.4834 195.583 85.9305 194.345 89.1388 194.345C96.752 194.345 99.3622 198.922 99.3622 203.392V215.954C99.3622 218.266 101.237 220.141 103.549 220.141V203.392C103.549 198.492 99.7429 193.537 90.9334 193.537C87.1268 193.537 83.9728 194.937 82.1239 196.176C81.7432 194.829 80.6556 194.345 78.2629 194.345Z" fill="#283618"/>
<path d="M114.862 214.053V194.666H122.91V194.343H114.862V191.08C114.862 189.551 113.622 188.311 112.093 188.311C111.923 192.104 110.551 193.311 107.303 194.666H110.675V212.815C110.675 218.9 115.243 221.001 118.832 221.001C122.964 221.001 125.629 218.092 126.445 216.638C125.847 217.662 123.508 219.708 120.191 219.708C117.798 219.708 114.862 218.793 114.862 214.053Z" fill="#283618"/>
<path d="M144.273 195.802C149.465 203.176 123.843 199.356 123.843 212.143C123.843 218.244 129.261 221.003 135.13 221.003C141.056 221.003 144.781 217.819 145.515 215.962C145.515 218.043 147.201 219.729 149.282 219.729H149.86V202.593C149.86 197.605 147.039 193.945 140.266 193.945C134.284 193.945 131.236 196.969 130.39 198.454C132.104 199.219 134.057 198.135 135.173 196.625C136.123 195.338 137.641 194.21 140.04 194.21C142.129 194.21 143.54 194.74 144.273 195.802ZM145.515 200.842V215.273C145.515 216.334 142.749 219.729 136.824 219.729C129.938 219.729 128.245 215.432 128.245 213.044C128.245 201.85 144.499 202.433 145.233 197.924C145.458 198.826 145.515 199.781 145.515 200.842Z" fill="#BC6C25"/>
<path d="M144.273 195.802C149.465 203.176 123.843 199.356 123.843 212.143C123.843 218.244 129.261 221.003 135.13 221.003C141.056 221.003 144.781 217.819 145.515 215.962C145.515 218.043 147.201 219.729 149.282 219.729H149.86V202.593C149.86 197.605 147.039 193.945 140.266 193.945C134.284 193.945 131.236 196.969 130.39 198.454C132.104 199.219 134.057 198.135 135.173 196.625C136.123 195.338 137.641 194.21 140.04 194.21C142.129 194.21 143.54 194.74 144.273 195.802ZM145.515 200.842V215.273C145.515 216.334 142.749 219.729 136.824 219.729C129.938 219.729 128.245 215.432 128.245 213.044C128.245 201.85 144.499 202.433 145.233 197.924C145.458 198.826 145.515 199.781 145.515 200.842Z" fill="#BC6C25"/>
<path d="M159.387 219.074C154.403 211.416 179 215.383 179 202.105C179 195.769 173.799 192.904 168.164 192.904C162.475 192.904 158.899 196.209 158.195 198.138C158.195 195.977 156.444 194.226 154.283 194.226H154.023V212.022C154.023 217.201 156.732 221.002 163.234 221.002C168.977 221.002 171.902 217.862 172.715 216.319C171.098 215.539 169.202 216.553 168.228 218.061C167.324 219.461 165.845 220.727 163.45 220.727C161.446 220.727 160.091 220.176 159.387 219.074ZM158.195 213.84V198.854C158.195 197.752 160.85 194.226 166.539 194.226C173.149 194.226 174.774 198.689 174.774 201.168C174.774 212.793 159.17 212.187 158.466 216.87C158.249 215.934 158.195 214.942 158.195 213.84Z" fill="#BC6C25"/>
<path d="M161.308 185.619C165.471 181.294 167.745 181.622 171.715 185.619" stroke="#BC6C25" stroke-linecap="round"/>
<defs>
<filter id="filter0_d_176_790" x="40.9087" y="0.383057" width="96.6194" height="164.919" filterUnits="userSpaceOnUse" color-interpolation-filters="sRGB">
<feFlood flood-opacity="0" result="BackgroundImageFix"/>
<feColorMatrix in="SourceAlpha" type="matrix" values="0 0 0 0 0 0 0 0 0 0 0 0 0 0 0 0 0 0 127 0" result="hardAlpha"/>
<feOffset dy="4"/>
<feGaussianBlur stdDeviation="2.5"/>
<feComposite in2="hardAlpha" operator="out"/>
<feColorMatrix type="matrix" values="0 0 0 0 0 0 0 0 0 0 0 0 0 0 0 0 0 0 0.25 0"/>
<feBlend mode="normal" in2="BackgroundImageFix" result="effect1_dropShadow_176_790"/>
<feBlend mode="normal" in="SourceGraphic" in2="effect1_dropShadow_176_790" result="shape"/>
</filter>
</defs>
</svg>
