<svg width="70" height="70" viewBox="0 0 70 70" fill="none" xmlns="http://www.w3.org/2000/svg">
<circle cx="35.0001" cy="35" r="34.0741" fill="#606C38"/>
<path d="M32.9558 63.2843L33.0471 63.5006L33.2819 63.4982C37.5433 63.4536 41.3835 62.684 44.1689 60.8857C46.9774 59.0725 48.6833 56.2316 48.6833 52.1445C48.6833 51.395 48.4887 50.5347 48.1837 49.5668C47.8786 48.5983 47.4532 47.493 46.9745 46.2491L46.9712 46.2406C45.6174 42.723 43.8068 38.0168 42.8864 31.7752C42.1003 26.4435 42.3655 20.6032 42.8305 16.0856C43.0628 13.829 43.3444 11.907 43.5679 10.5497C43.6796 9.87116 43.7767 9.33392 43.8458 8.96681C43.8804 8.78325 43.9079 8.64224 43.9268 8.54737C43.9362 8.49994 43.9435 8.46404 43.9484 8.44013L43.9538 8.41331L43.9552 8.40675L43.9555 8.4052L43.9556 8.40486L43.613 8.33337L43.9556 8.40481L44.162 7.41498L43.3878 8.0654C30.1773 19.1647 23.5406 27.236 20.2112 33.5674C16.8722 39.9174 16.8722 44.497 16.8722 48.5462V48.5465C16.8722 55.4627 21.8929 61.2601 28.6826 62.9799L29.3928 63.1598L29.0865 62.4943C24.6609 52.8775 25.7491 46.0656 27.8988 41.6709C28.9773 39.466 30.3297 37.8561 31.4114 36.7983C31.5604 36.6526 31.7041 36.5175 31.8412 36.3928C31.8013 36.4717 31.7608 36.5533 31.7197 36.6377C31.1164 37.8763 30.3958 39.7099 29.9158 42.1032C28.955 46.8944 28.9625 53.9101 32.7776 62.864C32.8382 63.0064 32.8976 63.1465 32.9558 63.2843Z" fill="#FEFAE0" stroke="#283618" stroke-width="0.7"/>
<path d="M51.394 25.4011L57.9628 18.7579C58.1669 18.5515 58.4267 18.4483 58.7421 18.4483C59.0575 18.4483 59.3173 18.5515 59.5214 18.7579C59.7256 18.9643 59.8276 19.2271 59.8276 19.5461C59.8276 19.8651 59.7256 20.1278 59.5214 20.3343L52.1734 27.7657C51.9507 27.9908 51.6909 28.1034 51.394 28.1034C51.0971 28.1034 50.8374 27.9908 50.6147 27.7657L47.72 24.8381C47.5159 24.6317 47.4138 24.369 47.4138 24.05C47.4138 23.7309 47.5159 23.4682 47.72 23.2618C47.9241 23.0554 48.1839 22.9521 48.4993 22.9521C48.8148 22.9521 49.0746 23.0554 49.2787 23.2618L51.394 25.4011Z" fill="#FFF8F3"/>
</svg>
