<svg width="29" height="29" viewBox="0 0 29 29" fill="none" xmlns="http://www.w3.org/2000/svg">
<path d="M13.925 4.7749V2.1499C13.925 1.91784 14.0172 1.69528 14.1813 1.53118C14.3454 1.36709 14.568 1.2749 14.8 1.2749C15.0321 1.2749 15.2547 1.36709 15.4188 1.53118C15.5829 1.69528 15.675 1.91784 15.675 2.1499V4.7749C15.675 5.00697 15.5829 5.22953 15.4188 5.39362C15.2547 5.55772 15.0321 5.6499 14.8 5.6499C14.568 5.6499 14.3454 5.55772 14.1813 5.39362C14.0172 5.22953 13.925 5.00697 13.925 4.7749ZM14.8 7.3999C13.4156 7.3999 12.0622 7.81045 10.9111 8.57962C9.75991 9.34879 8.86271 10.442 8.33289 11.7211C7.80308 13.0002 7.66446 14.4077 7.93455 15.7655C8.20465 17.1234 8.87133 18.3707 9.8503 19.3497C10.8293 20.3286 12.0766 20.9953 13.4344 21.2654C14.7923 21.5355 16.1998 21.3969 17.4788 20.8671C18.7579 20.3372 19.8512 19.44 20.6203 18.2889C21.3895 17.1378 21.8001 15.7844 21.8001 14.3999C21.798 12.544 21.0599 10.7647 19.7476 9.45239C18.4352 8.14008 16.6559 7.40193 14.8 7.3999ZM7.18099 8.01897C7.34517 8.18315 7.56786 8.27539 7.80005 8.27539C8.03224 8.27539 8.25493 8.18315 8.41911 8.01896C8.5833 7.85478 8.67554 7.6321 8.67554 7.3999C8.67554 7.16771 8.5833 6.94503 8.41911 6.78084L6.66911 5.03084C6.50493 4.86665 6.28224 4.77442 6.05005 4.77442C5.81786 4.77442 5.59517 4.86665 5.43099 5.03084C5.2668 5.19503 5.17456 5.41771 5.17456 5.6499C5.17456 5.8821 5.2668 6.10478 5.43099 6.26897L7.18099 8.01897ZM7.18099 20.7808L5.43099 22.5308C5.2668 22.695 5.17456 22.9177 5.17456 23.1499C5.17456 23.3821 5.2668 23.6048 5.43099 23.769C5.59517 23.9332 5.81786 24.0254 6.05005 24.0254C6.28224 24.0254 6.50493 23.9332 6.66911 23.769L8.41911 22.019C8.50041 21.9377 8.5649 21.8412 8.60889 21.7349C8.65289 21.6287 8.67554 21.5149 8.67554 21.3999C8.67554 21.2849 8.65289 21.1711 8.60889 21.0649C8.5649 20.9587 8.50041 20.8621 8.41911 20.7808C8.33782 20.6995 8.2413 20.6351 8.13508 20.5911C8.02886 20.5471 7.91502 20.5244 7.80005 20.5244C7.68508 20.5244 7.57123 20.5471 7.46501 20.5911C7.3588 20.6351 7.26228 20.6995 7.18099 20.7808ZM21.8001 8.2749C21.915 8.27499 22.0288 8.25244 22.135 8.20852C22.2413 8.16461 22.3378 8.1002 22.4191 8.01897L24.1691 6.26897C24.3333 6.10478 24.4255 5.8821 24.4255 5.6499C24.4255 5.41771 24.3333 5.19503 24.1691 5.03084C24.0049 4.86665 23.7822 4.77442 23.5501 4.77442C23.3179 4.77442 23.0952 4.86665 22.931 5.03084L21.181 6.78084C21.0585 6.90321 20.975 7.05919 20.9412 7.22901C20.9074 7.39883 20.9247 7.57487 20.991 7.73484C21.0573 7.89481 21.1695 8.03152 21.3136 8.12766C21.4576 8.22379 21.6269 8.27504 21.8001 8.2749ZM22.4191 20.7808C22.2549 20.6167 22.0322 20.5244 21.8001 20.5244C21.5679 20.5244 21.3452 20.6167 21.181 20.7808C21.0168 20.945 20.9246 21.1677 20.9246 21.3999C20.9246 21.6321 21.0168 21.8548 21.181 22.019L22.931 23.769C23.0123 23.8503 23.1088 23.9148 23.215 23.9587C23.3212 24.0027 23.4351 24.0254 23.5501 24.0254C23.665 24.0254 23.7789 24.0027 23.8851 23.9587C23.9913 23.9148 24.0878 23.8503 24.1691 23.769C24.2504 23.6877 24.3149 23.5912 24.3589 23.4849C24.4029 23.3787 24.4255 23.2649 24.4255 23.1499C24.4255 23.0349 24.4029 22.9211 24.3589 22.8149C24.3149 22.7087 24.2504 22.6121 24.1691 22.5308L22.4191 20.7808ZM6.05005 14.3999C6.05005 14.1678 5.95786 13.9453 5.79377 13.7812C5.62967 13.6171 5.40711 13.5249 5.17505 13.5249H2.55005C2.31798 13.5249 2.09542 13.6171 1.93133 13.7812C1.76724 13.9453 1.67505 14.1678 1.67505 14.3999C1.67505 14.632 1.76724 14.8545 1.93133 15.0186C2.09542 15.1827 2.31798 15.2749 2.55005 15.2749H5.17505C5.40711 15.2749 5.62967 15.1827 5.79377 15.0186C5.95786 14.8545 6.05005 14.632 6.05005 14.3999ZM14.8 23.1499C14.568 23.1499 14.3454 23.2421 14.1813 23.4062C14.0172 23.5703 13.925 23.7928 13.925 24.0249V26.6499C13.925 26.882 14.0172 27.1045 14.1813 27.2686C14.3454 27.4327 14.568 27.5249 14.8 27.5249C15.0321 27.5249 15.2547 27.4327 15.4188 27.2686C15.5829 27.1045 15.675 26.882 15.675 26.6499V24.0249C15.675 23.7928 15.5829 23.5703 15.4188 23.4062C15.2547 23.2421 15.0321 23.1499 14.8 23.1499ZM27.0501 13.5249H24.4251C24.193 13.5249 23.9704 13.6171 23.8063 13.7812C23.6422 13.9453 23.5501 14.1678 23.5501 14.3999C23.5501 14.632 23.6422 14.8545 23.8063 15.0186C23.9704 15.1827 24.193 15.2749 24.4251 15.2749H27.0501C27.2821 15.2749 27.5047 15.1827 27.6688 15.0186C27.8329 14.8545 27.9251 14.632 27.9251 14.3999C27.9251 14.1678 27.8329 13.9453 27.6688 13.7812C27.5047 13.6171 27.2821 13.5249 27.0501 13.5249Z" fill="#FFC700"/>
</svg>
