<svg width="39" height="43" viewBox="0 0 39 43" fill="none" xmlns="http://www.w3.org/2000/svg">
<g filter="url(#filter0_d_176_263)">
<path d="M4 7.79136C4 7.11108 4.56317 6.56169 5.25722 6.56169H13.5032C13.5136 5.11158 13.672 3.12586 15.1083 1.75152C16.2915 0.623067 17.865 -0.00447966 19.5 2.40748e-05C21.135 -0.00447966 22.7085 0.623067 23.8917 1.75152C25.328 3.12586 25.4864 5.11158 25.4968 6.56169H33.7428C34.4368 6.56169 35 7.1128 35 7.79136C34.9982 7.95465 34.9643 8.11599 34.9001 8.26617C34.8359 8.41634 34.7428 8.55241 34.6261 8.66659C34.5093 8.78078 34.3712 8.87085 34.2197 8.93167C34.0681 8.99248 33.9061 9.02284 33.7428 9.02102H5.25722C5.09393 9.02284 4.93187 8.99248 4.78032 8.93167C4.62876 8.87085 4.49066 8.78078 4.37392 8.66659C4.25717 8.55241 4.16406 8.41634 4.0999 8.26617C4.03575 8.11599 4.0018 7.95465 4 7.79136Z" fill="#606C38"/>
<path fill-rule="evenodd" clip-rule="evenodd" d="M18.8045 34.4444H20.1961C24.989 34.4444 27.3846 34.4444 28.9449 32.9185C30.5018 31.3927 30.6603 28.8885 30.9789 23.8838L31.4387 16.6728C31.6109 13.9569 31.6971 12.598 30.9169 11.7369C30.135 10.8758 28.8158 10.8758 26.1756 10.8758H12.8249C10.1848 10.8758 8.86383 10.8758 8.08367 11.7369C7.30178 12.598 7.38789 13.9569 7.56183 16.6728L8.02167 23.8855C8.34028 28.8903 8.49872 31.3944 10.0573 32.9185C11.6159 34.4444 14.0116 34.4444 18.8045 34.4444ZM16.4795 17.546C16.4106 16.8003 15.7768 16.2543 15.0673 16.3284C14.356 16.4042 13.8393 17.0689 13.9099 17.8181L14.7711 26.8822C14.8399 27.6296 15.4737 28.1738 16.1833 28.0998C16.8946 28.024 17.4112 27.3592 17.3406 26.6118L16.4795 17.546ZM23.935 16.3284C24.6446 16.4042 25.1629 17.0689 25.0906 17.8181L24.2295 26.8822C24.1606 27.6296 23.5251 28.1738 22.8173 28.0998C22.106 28.024 21.5893 27.3592 21.6599 26.6118L22.5211 17.546C22.5899 16.8003 23.2272 16.2543 23.935 16.3284Z" fill="#606C38"/>
</g>
<defs>
<filter id="filter0_d_176_263" x="0" y="0" width="39" height="42.4444" filterUnits="userSpaceOnUse" color-interpolation-filters="sRGB">
<feFlood flood-opacity="0" result="BackgroundImageFix"/>
<feColorMatrix in="SourceAlpha" type="matrix" values="0 0 0 0 0 0 0 0 0 0 0 0 0 0 0 0 0 0 127 0" result="hardAlpha"/>
<feOffset dy="4"/>
<feGaussianBlur stdDeviation="2"/>
<feComposite in2="hardAlpha" operator="out"/>
<feColorMatrix type="matrix" values="0 0 0 0 0 0 0 0 0 0 0 0 0 0 0 0 0 0 0.25 0"/>
<feBlend mode="normal" in2="BackgroundImageFix" result="effect1_dropShadow_176_263"/>
<feBlend mode="normal" in="SourceGraphic" in2="effect1_dropShadow_176_263" result="shape"/>
</filter>
</defs>
</svg>
