<svg width="29" height="29" viewBox="0 0 29 29" fill="none" xmlns="http://www.w3.org/2000/svg">
<path d="M14.6002 26.0666C12.1307 26.0666 9.95762 25.2064 8.08085 23.4859C6.20407 21.7655 5.26607 19.4368 5.26685 16.4999C5.26685 14.6527 5.96685 12.6499 7.36685 10.4916C8.76685 8.33328 10.8863 5.99994 13.7252 3.49161C13.8418 3.39439 13.978 3.31661 14.1335 3.25828C14.2891 3.19994 14.4446 3.17078 14.6002 3.17078C14.7557 3.17078 14.9113 3.19994 15.0668 3.25828C15.2224 3.31661 15.3585 3.39439 15.4752 3.49161C18.3141 5.99994 20.4335 8.33328 21.8335 10.4916C23.2335 12.6499 23.9335 14.6527 23.9335 16.4999C23.9335 19.4361 22.9951 21.7647 21.1183 23.4859C19.2416 25.2072 17.0688 26.0674 14.6002 26.0666ZM14.921 22.5666C15.1543 22.5472 15.3538 22.4546 15.5195 22.2889C15.6852 22.1233 15.7676 21.9242 15.7668 21.6916C15.7668 21.4194 15.6793 21.2004 15.5043 21.0348C15.3293 20.8691 15.1057 20.7964 14.8335 20.8166C14.0363 20.8749 13.1905 20.656 12.296 20.1598C11.4016 19.6636 10.8377 18.7644 10.6043 17.4624C10.5655 17.2486 10.4636 17.0736 10.2987 16.9374C10.1338 16.8013 9.94401 16.7333 9.72935 16.7333C9.45712 16.7333 9.23351 16.8356 9.05851 17.0401C8.88351 17.2447 8.82518 17.4827 8.88351 17.7541C9.21407 19.5236 9.99185 20.7874 11.2168 21.5458C12.4418 22.3041 13.6766 22.6444 14.921 22.5666Z" fill="#0652DD"/>
</svg>
